HIERARCHY
ROOT Hips
{
  OFFSET -33.9132 29.2015 117.021
  CHANNELS 6 Xposition Yposition Zposition Zrotation Xrotation Yrotation
  JOINT LeftUpLeg
  {
    OFFSET 8.64259 1.95398 -2.38835
    CHANNELS 3 Zrotation Xrotation Yrotation
    JOINT LeftLeg
    {
      OFFSET 43.7702 0 0
      CHANNELS 3 Zrotation Xrotation Yrotation
      JOINT LeftFoot
      {
        OFFSET 40.6238 0 0
        CHANNELS 3 Zrotation Xrotation Yrotation
        JOINT LeftToeBase
        {
          OFFSET 12.7242 0 0
          CHANNELS 3 Zrotation Xrotation Yrotation
          End Site
          {
            OFFSET 0 0 0
          }
        }
      }
    }
  }
  JOINT RightUpLeg
  {
    OFFSET -8.2249 1.95398 -2.59336
    CHANNELS 3 Zrotation Xrotation Yrotation
    JOINT RightLeg
    {
      OFFSET 43.5653 0 0
      CHANNELS 3 Zrotation Xrotation Yrotation
      JOINT RightFoot
      {
        OFFSET 40.6238 0 0
        CHANNELS 3 Zrotation Xrotation Yrotation
        JOINT RightToeBase
        {
          OFFSET 12.7242 0 0
          CHANNELS 3 Zrotation Xrotation Yrotation
          End Site
          {
            OFFSET 0 0 0
          }
        }
      }
    }
  }
  JOINT Spine
  {
    OFFSET 0.165834 0.87714 6.61349
    CHANNELS 3 Zrotation Xrotation Yrotation
    JOINT Spine1
    {
      OFFSET 7.38963 1.71661e-005 0
      CHANNELS 3 Zrotation Xrotation Yrotation
      JOINT Spine2
      {
        OFFSET 11.9445 1.14441e-005 0
        CHANNELS 3 Zrotation Xrotation Yrotation
        JOINT Spine3
        {
          OFFSET 14.7254 4.19617e-005 0
          CHANNELS 3 Zrotation Xrotation Yrotation
          JOINT Spine4
          {
            OFFSET 10.9679 0 0
            CHANNELS 3 Zrotation Xrotation Yrotation
            JOINT RightShoulder
            {
              OFFSET 2.46616 -1.6653 3.69651
              CHANNELS 3 Zrotation Xrotation Yrotation
              JOINT RightArm
              {
                OFFSET 13.0012 0 0
                CHANNELS 3 Zrotation Xrotation Yrotation
                JOINT RightForeArm
                {
                  OFFSET 28.7848 1.62311e-005 0
                  CHANNELS 3 Zrotation Xrotation Yrotation
                  JOINT RightHand
                  {
                    OFFSET 26.5688 1.62095e-005 0
                    CHANNELS 3 Zrotation Xrotation Yrotation
                    End Site
                    {
                      OFFSET 0 0 0
                    }
                  }
                }
              }
            }
            JOINT LeftShoulder
            {
              OFFSET 2.38034 -1.29275 -3.7523
              CHANNELS 3 Zrotation Xrotation Yrotation
              JOINT LeftArm
              {
                OFFSET 16.3182 6.07031e-005 0
                CHANNELS 3 Zrotation Xrotation Yrotation
                JOINT LeftForeArm
                {
                  OFFSET 27.0901 0 0
                  CHANNELS 3 Zrotation Xrotation Yrotation
                  JOINT LeftHand
                  {
                    OFFSET 24.5451 1.51738e-005 0
                    CHANNELS 3 Zrotation Xrotation Yrotation
                    End Site
                    {
                      OFFSET 0 0 0
                    }
                  }
                }
              }
            }
            JOINT Neck
            {
              OFFSET 5.0226 -0.0266342 0
              CHANNELS 3 Zrotation Xrotation Yrotation
              JOINT Head
              {
                OFFSET 6.69364 2.86102e-005 0
                CHANNELS 3 Zrotation Xrotation Yrotation
                End Site
                {
                  OFFSET 0 0 0
                }
              }
            }
          }
        }
      }
    }
  }
}
MOTION
Frames:	17
Frame Time:	0.0416667
66.3953 93.6928 -104.227 89.3813 51.2048 90.3679 -176.337 37.2486 85.2825 -41.0965 19.138 -1.78495 63.0821 2.1996 6.10309 16.0209 -3.21207 -4.90705 172.1 -18.342 93.7757 -49.4728 -7.53902 0.511889 59.7143 0.310865 -0.228591 21.0256 0.638462 9.23036 2.0725 8.24166 -89.5583 10.3866 4.33118 0.496989 -1.27711 4.34885 0.305516 -23.8627 3.98134 1.77772 -3.85008 3.98133 1.77771 91.2644 -22.8927 -107.003 38.5028 -10.5187 22.6864 -39.759 -2.5648 -87.3839 -34.8751 11.143 -40.322 -89.3951 -48.2714 79.2756 -19.962 14.4007 30.8985 47.5757 26.9577 -62.118 69.6656 -22.9926 -29.5414 13.9435 -9.88542 -5.87313 -6.99637 -7.95835 -4.24905 
73.548 91.395 -112.356 97.0963 51.9816 78.3936 -172.946 30.578 79.2642 -53.6648 19.5763 -2.90421 75.0762 11.519 6.10081 12.4009 -8.16999 0.360872 167.16 -9.8704 85.0896 -73.151 -7.71211 -1.96964 61.9435 -1.45641 -3.96124 15.6936 1.83791 11.4549 1.07772 8.69384 -88.9578 9.46194 2.61804 1.86876 -2.20754 2.69776 1.75168 -24.7449 1.93554 2.56907 -4.7322 1.93556 2.56907 90.1714 -27.97 -107.21 41.9068 -9.50203 22.4614 -46.1398 -10.4747 -81.6698 -35.7405 9.12116 -33.465 -90.0877 -52.1878 79.0599 -16.5374 14.8245 14.0749 42.7693 32.7439 -58.5399 67.617 -22.7541 -30.3806 13.3973 -7.90608 -6.80138 -3.33888 -5.95345 -2.54915 
79.4471 90.3851 -120.076 95.6204 49.7999 76.2986 -171.22 24.4013 76.3422 -55.7164 18.024 -4.19417 79.8584 17.1773 10.1601 22.7617 -1.62741 -2.36685 171.159 5.92316 79.7951 -91.7989 -7.17046 -4.34454 64.2239 -4.10487 -6.28856 10.5907 3.8388 11.152 0.520844 8.49381 -88.4293 9.85186 1.75009 2.97666 -1.82118 1.87935 2.89681 -24.3314 0.775172 3.36457 -4.31874 0.775183 3.36458 90.8541 -29.6605 -105.182 45.8275 -9.79578 28.0621 -41.9461 -12.1484 -78.0103 -33.1479 9.27021 -36.2551 -89.7938 -51.5506 79.3586 -8.30492 15.2969 -9.73997 50.341 40.7441 -61.969 61.6203 -20.5648 -30.3002 14.9298 -5.8751 -6.21251 -5.6721 -3.94345 -3.73224 
85.12 91.4459 -126.757 93.7343 48.4335 79.8299 -170.913 18.3079 79.3778 -54.3169 16.9019 -4.03715 84.056 20.0236 8.28977 23.1854 -2.943 0.698136 175.882 23.3871 86.5814 -96.4783 -7.71731 -4.52571 65.5688 -5.5555 -7.76792 11.1232 3.0392 12.5934 -0.0619542 7.9931 -88.7012 10.8783 0.47724 2.53986 -0.794994 0.588533 2.5164 -23.3102 -0.307875 2.56588 -3.29755 -0.307895 2.56588 91.2657 -29.0425 -104.587 49.1402 -9.11905 38.0894 -35.1986 -10.2902 -76.8389 -30.3815 10.091 -41.9344 -88.5909 -49.928 80.8235 -2.5512 15.2965 -22.5795 42.8777 36.3843 -58.491 59.354 -23.6979 -36.8562 13.0903 -2.02444 -4.05772 -5.42399 -0.879735 -3.44678 
91.9928 94.5004 -133.468 97.0377 46.6639 80.702 -170.302 7.6073 84.1104 -48.9167 17.9135 -3.82041 76.8192 14.5434 9.36976 37.032 4.63657 -3.33153 177.876 29.2026 91.0381 -85.7857 -1.73702 -4.00815 68.3954 -6.94948 -7.61264 10.5355 3.23629 12.6339 -0.63818 8.04607 -89.2023 10.7852 -0.902697 1.66819 -0.886607 -0.828406 1.70627 -23.4182 -1.36226 1.31985 -3.40561 -1.36229 1.31984 90.9406 -27.7634 -105.712 47.9827 -4.39797 42.7511 -40.5811 -13.2382 -76.0195 -31.3112 10.6943 -42.8532 -87.9332 -44.9197 80.8555 -5.66278 12.6402 -25.1889 22.9214 20.9389 -52.5899 77.5276 -26.9636 -32.2235 14.5561 1.81636 -2.35399 -6.67918 2.47783 -2.46857 
99.3359 97.8416 -141.35 98.462 43.9976 83.4593 -170.131 -2.55847 89.5397 -39.8157 18.2792 -2.99414 66.9675 5.79412 6.70283 46.356 8.08113 -2.53219 179.711 29.4548 95.3272 -65.9923 -1.7089 -3.18912 67.6745 -5.80058 -7.22822 12.0356 3.44163 10.803 -0.90663 8.04214 -89.7987 10.7946 -1.71235 0.559267 -0.875403 -1.68606 0.634098 -23.4196 -1.80126 0.0186221 -3.40695 -1.80123 0.0186176 91.2927 -26.1485 -105.601 45.7819 0.0422691 42.4524 -46.7766 -18.6594 -74.0215 -28.3218 9.32585 -41.7973 -87.8251 -43.0674 80.656 -6.87901 11.7367 -25.984 19.0255 19.4393 -49.8341 80.8185 -27.9113 -31.5812 15.7548 4.51791 -0.501813 -8.95952 4.60325 -1.34427 
106.901 100.003 -149.726 98.124 42.7004 86.179 -171.253 -11.8017 91.8212 -30.9471 18.4798 -0.636774 58.9505 -0.747512 3.2902 42.5947 6.39915 -2.1243 179.941 25.7243 97.0253 -40.5566 -8.49491 -1.40979 64.6457 -3.33505 -3.04547 15.6105 2.42984 9.92473 -1.0676 7.74281 -90.2787 11.3853 -2.25418 -0.327231 -0.283695 -2.26638 -0.227663 -22.832 -2.05158 -0.989847 -2.81935 -2.05158 -0.989847 91.8811 -24.0964 -105.14 46.2932 2.91865 40.4503 -43.4424 -24.7314 -66.215 -27.1658 9.20396 -42.8768 -87.9695 -42.5284 80.3076 -8.62357 10.9195 -24.8231 37.15 31.4616 -55.687 62.9716 -23.9612 -35.315 15.5426 5.97381 0.793065 -12.6026 5.59231 0.125654 
114.54 100.099 -157.931 96.8815 42.6958 87.217 -171.736 -16.9367 91.5791 -29.3943 15.3225 0.582505 59.1691 -1.17353 0.183287 31.8401 -0.17706 4.16244 179.398 20.1713 97.1534 -14.763 -10.911 0.78383 60.7355 -2.33564 -1.76618 20.1995 1.36728 7.94147 -1.14588 7.39388 -90.5293 12.0794 -2.52805 -0.77994 0.410745 -2.55991 -0.667867 -22.138 -2.17675 -1.50393 -2.12538 -2.17675 -1.50393 92.3948 -23.2344 -104.345 44.6083 5.78179 40.7928 -39.6134 -26.7685 -61.0927 -22.9939 7.87602 -43.6077 -87.7771 -42.1358 80.5401 -12.1646 8.92595 -26.6513 41.5033 35.7573 -57.0203 54.8686 -23.0006 -39.4388 15.2666 6.33794 1.60822 -14.1601 5.66515 0.772578 
122.018 98.3163 -165.308 98.5386 44.244 84.2955 -171.177 -20.5549 91.6004 -33.6038 13.3902 0.842457 64.429 3.06858 2.22523 31.5653 -1.03246 5.81552 178.425 19.0658 95.9665 -10.7038 -9.00173 1.30527 60.7078 -2.13318 -0.423465 24.9652 0.239474 5.26572 -1.30434 7.31451 -90.4559 12.2401 -2.80833 -0.596564 0.572115 -2.83188 -0.472296 -21.9822 -2.49913 -1.41346 -1.96956 -2.49916 -1.41347 92.1953 -23.6981 -104.605 43.3354 8.13629 36.9886 -32.2109 -29.2199 -51.0951 -22.3865 7.37185 -42.241 -87.929 -43.6552 80.6087 -13.6899 7.98339 -29.7869 26.0475 31.6668 -47.8019 51.9071 -23.9747 -44.2619 14.8852 5.80172 1.44798 -13.3953 5.19634 0.779263 
128.8 95.6524 -172.061 101.89 45.4261 80.2725 -168.581 -19.9292 93.7945 -43.9003 10.6823 0.284553 64.153 3.36583 1.989 33.7718 0.833006 3.8315 175.703 25.0236 94.6722 -30.6609 -13.7511 2.2856 60.4913 0.606438 -0.114348 5.84832 8.33588 5.66784 -1.30797 7.37842 -90.1611 12.1198 -2.67619 -0.0260244 0.451597 -2.67473 0.0918595 -22.1041 -2.54455 -0.829654 -2.09148 -2.54456 -0.82966 91.9548 -25.6485 -104.384 44.1245 9.95612 22.5196 -17.9608 -36.4742 -26.2533 -27.0668 8.61361 -40.7355 -88.4679 -43.562 79.719 -15.1539 9.34088 -30.6525 22.5632 34.2394 -43.9867 48.5805 -23.003 -45.5556 14.5529 4.26643 -1.47849 -12.5086 4.39521 1.87336 
134.923 92.79 -177.571 104.324 46.2442 81.8584 -164.558 -10.6393 100.816 -60.8518 6.87951 1.32132 66.6152 4.78593 1.8187 36.8349 2.66639 2.71968 173.034 28.8598 99.9517 -50.7984 -14.8342 3.58557 67.5365 -5.11161 -7.88397 10.7842 5.5439 6.98739 -0.938187 7.49377 -90.6591 11.8824 -2.17616 -1.08456 0.212936 -2.22176 -0.987719 -22.3294 -1.74957 -1.68851 -2.31676 -1.74956 -1.68851 92.8201 -25.6897 -102.524 47.0123 9.55024 6.76784 -4.13981 -38.3573 -3.81814 -34.025 8.94019 -34.3706 -89.9449 -49.4648 78.6974 -15.2 9.41649 -31.3025 27.9316 45.3101 -45.1075 46.6139 -18.4923 -38.1585 12.2699 2.98427 1.41788 -8.46374 2.49108 1.38158 
139.804 92.2039 -181.991 106.105 48.2773 84.0569 -168.753 2.75328 101.764 -74.7968 10.1494 3.78396 68.4706 6.64257 5.60628 33.3246 1.62606 1.27163 170.673 24.2512 102.688 -53.7754 -13.715 5.64815 71.8463 -9.2066 -8.56826 10.9364 4.9039 8.34496 -0.806015 7.67639 -91.1423 11.4951 -2.13735 -2.05466 -0.175655 -2.22567 -1.95863 -22.7047 -1.42127 -2.6018 -2.69207 -1.42127 -2.60181 93.1509 -27.9632 -101.048 45.9528 7.58432 -1.09339 -5.31233 -42.1922 -5.45903 -28.4467 5.04638 -25.0733 -91.0517 -51.8206 77.572 -21.8706 3.45012 -26.3864 29.4448 56.445 -41.7714 40.4486 -13.6503 -33.1807 11.6413 2.11181 1.97885 -7.08004 1.50334 2.15328 
144.138 93.7493 -185.552 107.398 50.9833 82.2605 -176.466 12.3666 97.5958 -77.4616 9.80414 5.40581 70.3923 8.58721 8.07457 26.2886 0.44425 -3.59244 169.214 18.5034 100.925 -51.3071 -13.4351 7.21402 73.6538 -10.8729 -9.07061 12.6416 4.07148 8.68991 -0.710163 7.68995 -90.9761 11.4763 -1.86907 -1.75541 -0.194248 -1.94452 -1.67147 -22.7261 -1.25522 -2.23584 -2.71346 -1.25523 -2.23585 91.8904 -29.5045 -103.157 44.9577 6.18762 -7.81185 -4.86935 -35.0837 -5.21623 -11.8117 1.52237 -20.4552 -90.2909 -49.675 78.2221 -28.7943 -2.90191 -22.787 1.71359 53.3142 -12.7777 30.7026 -9.27555 -30.5651 8.90384 0.0949398 0.154422 -6.18171 -0.0244813 2.83188 
148.576 96.6891 -189.344 108.306 46.4774 81.0985 -177.352 16.285 93.9736 -67.146 -3.15608 5.17468 73.2169 10.2984 6.71732 22.764 -1.76788 -2.10422 172.035 9.91163 100.16 -44.6883 -15.2159 5.76568 72.253 -10.0421 -9.75204 12.6467 2.71202 12.0489 0.303724 7.80465 -90.741 11.264 0.259514 -1.50114 -0.40782 0.193195 -1.51109 -22.9373 0.698629 -1.35378 -2.92464 0.698633 -1.35378 90.8751 -28.2171 -105.676 47.1839 3.81468 -12.4077 -4.65901 -31.254 -5.1243 -15.3745 1.43387 -16.3409 -90.4668 -50.3616 78.111 -24.4103 -4.21562 -21.4143 -11.8024 43.2741 -0.0227599 24.3461 -4.47727 -20.2304 7.64851 -2.04236 -1.45367 -7.41644 -1.79019 2.07995 
153.423 99.2907 -193.516 107.623 41.9488 80.4714 -178.402 17.2411 91.2784 -53.3285 -2.26493 4.49165 72.7047 10.6279 7.13398 20.1883 -2.18344 -3.57905 174.407 1.54976 98.489 -37.312 -17.9019 3.58659 71.046 -8.40399 -7.95942 14.4634 1.9725 12.2752 1.08642 7.88951 -90.3694 11.1057 1.991 -0.930705 -0.564036 1.94813 -1.01747 -23.1115 2.17866 -0.289044 -3.0988 2.17863 -0.289052 90.7377 -27.3155 -106.304 47.713 1.63397 -18.3714 -4.93946 -36.3009 -5.25119 -21.8395 2.76534 -19.8715 -89.878 -50.0776 78.9266 -19.5866 -9.76605 -17.6973 -10.6794 45.1666 -0.0190235 17.1365 -1.79787 -13.9034 6.4024 -3.10664 -2.76021 -5.66171 -2.55469 1.52675 
158.293 101.135 -197.65 105.183 38.1413 80.6009 -179.591 18.0933 89.3259 -39.1264 9.79777 3.31412 67.7843 7.54897 5.60297 22.7115 -1.60459 -2.49002 175.698 -3.52956 96.8449 -32.5198 -19.1807 1.06612 68.9372 -5.73078 -6.47087 15.6775 1.45933 12.5033 1.43213 7.72543 -89.9325 11.4272 2.88109 -0.157077 -0.240575 2.87138 -0.283842 -22.8003 2.79498 0.716773 -2.78768 2.79498 0.71676 91.3527 -25.2072 -105.847 48.6169 -1.17833 -24.8485 -5.49446 -44.7383 -5.56876 -28.26 4.63165 -23.8709 -88.7726 -47.5103 80.0693 -14.0137 -11.9481 -4.46318 -9.75128 45.6541 0.033858 6.30467 -0.0813062 -11.488 5.87718 -2.73555 -2.9872 -5.82708 -2.11588 -0.0146231 
163.027 101.401 -201.515 102.959 33.2201 81.585 -178.159 17.8702 88.859 -25.2998 15.2991 0.938656 62.9549 3.92084 3.06851 26.1333 -0.644316 -1.30104 176.653 -8.15828 96.1774 -29.9328 -22.2603 -1.54911 68.952 -5.95687 -7.78253 17.1729 0.646701 13.3427 1.68431 7.62163 -89.793 11.6342 3.44731 0.0541487 -0.0321392 3.44636 -0.0978227 -22.6013 3.27147 1.08883 -2.58867 3.27149 1.08882 91.6704 -22.0754 -106.457 48.5442 -4.12626 -32.6377 -5.70662 -47.4344 -5.70649 -32.7055 5.8781 -25.419 -87.9147 -46.8306 81.263 -7.8022 -8.8577 12.4815 -10.328 37.8862 -0.416952 3.25656 -0.292443 -16.5936 7.85015 -0.848366 0.598152 -6.92187 -0.876158 -2.28929 
